<svg enable-background="new 0 0 397.17 240" viewBox="0 0 397.17 240" xmlns="http://www.w3.org/2000/svg" xmlns:xlink="http://www.w3.org/1999/xlink"><linearGradient id="a"><stop offset="0" stop-color="#fff"/><stop offset="1" stop-color="#010101"/></linearGradient><radialGradient id="b" cx="64.3637" cy="153.4687" gradientTransform="matrix(-.2607 .9654 -1.0234 -.2764 322.7148 105.8955)" gradientUnits="userSpaceOnUse" r="16.6587" xlink:href="#a"/><radialGradient id="c" cx="46.6705" cy="150.3134" gradientTransform="matrix(-.2607 .9654 -1.0234 -.2764 308.792 105.1925)" gradientUnits="userSpaceOnUse" r="16.6594" xlink:href="#a"/><radialGradient id="d" cx="76.1098" cy="144.7972" gradientTransform="matrix(-.2607 .9654 -1.0234 -.2764 330.2743 98.0222)" gradientUnits="userSpaceOnUse" r="16.6612" xlink:href="#a"/><radialGradient id="e" cx="70.3916" cy="150.9796" gradientTransform="matrix(-.2607 .9654 -1.0234 -.2764 326.9008 103.3741)" gradientUnits="userSpaceOnUse" r="16.6597" xlink:href="#a"/><linearGradient id="f"><stop offset="0" stop-color="#fff"/><stop offset=".7819" stop-color="#010101"/></linearGradient><radialGradient id="g" cx="78.9454" cy="135.5849" gradientTransform="matrix(-.2607 .9654 -1.0234 -.2764 330.986 90.6067)" gradientUnits="userSpaceOnUse" r="16.6609" xlink:href="#f"/><radialGradient id="h" cx="77.3169" cy="128.1544" gradientTransform="matrix(-.2607 .9654 -1.0234 -.2764 328.588 85.0107)" gradientUnits="userSpaceOnUse" r="16.6602" xlink:href="#f"/><linearGradient id="i"><stop offset="0" stop-color="#b41f24"/><stop offset=".5043" stop-color="#a21d21"/><stop offset=".879" stop-color="#391312"/></linearGradient><radialGradient id="j" cx="44.9767" cy="145.6966" fx="39.4818" gradientTransform="matrix(-.2607 .9654 -1.0233 -.2764 306.7556 101.7862)" gradientUnits="userSpaceOnUse" r="7.9604" xlink:href="#i"/><radialGradient id="k" cx="56.586" cy="119.6585" fx="51.0905" gradientTransform="matrix(-.2607 .9654 -1.0233 -.2764 311.4965 80.4732)" gradientUnits="userSpaceOnUse" r="7.9613" xlink:href="#i"/><radialGradient id="l" cx="75.7703" cy="122.9586" fx="70.2749" gradientTransform="matrix(-.2607 .9654 -1.0233 -.2764 326.5734 81.1416)" gradientUnits="userSpaceOnUse" r="7.9611" xlink:href="#i"/><radialGradient id="m" cx="76.7053" cy="132.3583" fx="71.2097" gradientTransform="matrix(-.2607 .9654 -1.0233 -.2764 328.7527 88.3311)" gradientUnits="userSpaceOnUse" r="7.9614" xlink:href="#i"/><radialGradient id="n" cx="64.8327" cy="116.9219" gradientTransform="matrix(-.2607 .9654 -1.0234 -.2764 317.356 77.538)" gradientUnits="userSpaceOnUse" r="16.6602" xlink:href="#f"/><radialGradient id="o" cx="62.549" cy="126.4499" gradientTransform="matrix(-.2607 .9654 -1.0234 -.2764 317.1126 85.1437)" gradientUnits="userSpaceOnUse" r="16.6614" xlink:href="#f"/><radialGradient id="p" cx="48.8197" cy="138.6624" gradientTransform="matrix(-.2607 .9654 -1.0234 -.2764 308.6015 95.9554)" gradientUnits="userSpaceOnUse" r="16.6608" xlink:href="#f"/><radialGradient id="q" cx="59.9399" cy="132.9974" gradientTransform="matrix(-.2607 .9654 -1.0234 -.2764 316.156 90.4726)" gradientUnits="userSpaceOnUse" r="16.6599" xlink:href="#f"/><radialGradient id="r" cx="40.185" cy="133.3481" gradientTransform="matrix(-.2607 .9654 -1.0234 -.2764 301.2167 92.6883)" gradientUnits="userSpaceOnUse" r="16.6619" xlink:href="#f"/><radialGradient id="s" cx="42.8842" cy="124.89" gradientTransform="matrix(-.2607 .9654 -1.0234 -.2764 301.9428 85.8706)" gradientUnits="userSpaceOnUse" r="16.6599" xlink:href="#f"/><radialGradient id="t" cx="71.5718" cy="142.0723" fx="66.0765" gradientTransform="matrix(-.2607 .9654 -1.0233 -.2764 326.375 96.3613)" gradientUnits="userSpaceOnUse" r="7.961" xlink:href="#i"/><radialGradient id="u" cx="55.0129" cy="132.2821" fx="49.5176" gradientTransform="matrix(-.2607 .9654 -1.0233 -.2764 312.276 90.4069)" gradientUnits="userSpaceOnUse" r="7.961" xlink:href="#i"/><radialGradient id="v" cx="55.0359" cy="153.9237" gradientTransform="matrix(-.2607 .9654 -1.0234 -.2764 315.706 107.166)" gradientUnits="userSpaceOnUse" r="16.6611" xlink:href="#a"/><radialGradient id="w" cx="60.8831" cy="147.0193" fx="55.3875" gradientTransform="matrix(-.2607 .9654 -1.0233 -.2764 319.0355 101.2454)" gradientUnits="userSpaceOnUse" r="7.9613" xlink:href="#i"/><linearGradient id="x"><stop offset="0" stop-color="#fff"/><stop offset=".7819" stop-color="#020202"/></linearGradient><radialGradient id="y" cx="193.2023" cy="709.0562" gradientTransform="matrix(-.2607 .9654 1.0234 .2764 -402.2316 -220.9164)" gradientUnits="userSpaceOnUse" r="13.9087" xlink:href="#x"/><linearGradient id="z"><stop offset="0" stop-color="#b32226"/><stop offset=".5043" stop-color="#a22024"/><stop offset=".879" stop-color="#371818"/></linearGradient><radialGradient id="A" cx="176.3725" cy="703.0669" fx="171.785" gradientTransform="matrix(-.2607 .9654 1.0233 .2764 -411.5291 -209.6028)" gradientUnits="userSpaceOnUse" r="6.6458" xlink:href="#z"/><radialGradient id="B" cx="173.9214" cy="733.2787" fx="169.3334" gradientTransform="matrix(-.175 .9845 1.0436 .1856 -449.8741 -159.0201)" gradientUnits="userSpaceOnUse" r="6.6466" xlink:href="#z"/><radialGradient id="C" cx="199.0408" cy="712.2509" fx="194.4529" gradientTransform="matrix(-.2607 .9654 1.0233 .2764 -391.7114 -230.2474)" gradientUnits="userSpaceOnUse" r="6.6464" xlink:href="#z"/><radialGradient id="D" cx="194.2195" cy="716.2278" gradientTransform="matrix(-.2607 .9654 1.0234 .2764 -401.0316 -233.851)" gradientUnits="userSpaceOnUse" r="13.909" xlink:href="#x"/><radialGradient id="E" cx="182.8565" cy="707.3101" gradientTransform="matrix(-.2607 .9654 1.0234 .2764 -401.275 -226.2453)" gradientUnits="userSpaceOnUse" r="13.91" xlink:href="#x"/><radialGradient id="F" cx="186.1805" cy="707.0474" gradientTransform="matrix(-.2607 .9654 1.0234 .2764 -409.7861 -215.4336)" gradientUnits="userSpaceOnUse" r="13.9095" xlink:href="#x"/><radialGradient id="G" cx="171.5173" cy="709.9908" gradientTransform="matrix(-.2607 .9654 1.0234 .2764 -417.1709 -218.7007)" gradientUnits="userSpaceOnUse" r="13.9104" xlink:href="#x"/><radialGradient id="H" cx="169.3406" cy="723.792" gradientTransform="matrix(-.2607 .9654 1.0234 .2764 -416.4448 -225.5184)" gradientUnits="userSpaceOnUse" r="13.9087" xlink:href="#x"/><radialGradient id="I" cx="185.3184" cy="694.4145" fx="180.7306" gradientTransform="matrix(-.2607 .9654 1.0233 .2764 -391.9098 -215.0277)" gradientUnits="userSpaceOnUse" r="6.6463" xlink:href="#z"/><radialGradient id="J" cx="198.6899" cy="703.9174" fx="194.1018" gradientTransform="matrix(-.2607 .9654 1.0233 .2764 -389.532 -223.0579)" gradientUnits="userSpaceOnUse" r="6.6467" xlink:href="#z"/><radialGradient id="K" cx="173.7171" cy="705.2393" fx="169.1293" gradientTransform="matrix(-.2607 .9654 1.0233 .2764 -406.0088 -220.9821)" gradientUnits="userSpaceOnUse" r="6.6463" xlink:href="#z"/><linearGradient id="L"><stop offset="0" stop-color="#fff"/><stop offset="1" stop-color="#020202"/></linearGradient><radialGradient id="M" cx="274.3336" cy="664.0468" gradientTransform="matrix(-.2607 .9654 1.0234 .2764 -330.009 -361.8764)" gradientUnits="userSpaceOnUse" r="13.9101" xlink:href="#L"/><radialGradient id="N" cx="256.956" cy="665.3401" fx="252.3685" gradientTransform="matrix(-.2607 .9654 1.0233 .2764 -353.4198 -358.1109)" gradientUnits="userSpaceOnUse" r="6.6458" xlink:href="#z"/><radialGradient id="O" cx="267.7473" cy="683.6818" fx="263.1593" gradientTransform="matrix(-.2607 .9654 1.0233 .2764 -348.6789 -379.4239)" gradientUnits="userSpaceOnUse" r="6.6466" xlink:href="#z"/><radialGradient id="P" cx="276.1103" cy="682.1663" gradientTransform="matrix(-.2607 .9654 1.0234 .2764 -342.9273 -382.3604)" gradientUnits="userSpaceOnUse" r="13.909" xlink:href="#x"/><radialGradient id="Q" cx="252.5273" cy="676.6373" gradientTransform="matrix(-.2607 .9654 1.0234 .2764 -359.0666 -367.2101)" gradientUnits="userSpaceOnUse" r="13.9104" xlink:href="#x"/><radialGradient id="R" cx="253.4809" cy="683.2503" gradientTransform="matrix(-.2607 .9654 1.0234 .2764 -358.3405 -374.0278)" gradientUnits="userSpaceOnUse" r="13.9087" xlink:href="#x"/><radialGradient id="S" cx="280.0475" cy="677.5613" fx="275.4597" gradientTransform="matrix(-.2607 .9654 1.0233 .2764 -333.602 -378.7555)" gradientUnits="userSpaceOnUse" r="6.6464" xlink:href="#z"/><radialGradient id="T" cx="274.6205" cy="663.3919" fx="270.0327" gradientTransform="matrix(-.2607 .9654 1.0233 .2764 -333.8005 -363.5358)" gradientUnits="userSpaceOnUse" r="6.6463" xlink:href="#z"/><radialGradient id="U" cx="276.9577" cy="669.7151" gradientTransform="matrix(-.2607 .9654 1.0234 .2764 -329.2974 -369.2918)" gradientUnits="userSpaceOnUse" r="13.9096" xlink:href="#x"/><radialGradient id="V" cx="263.3384" cy="675.3043" fx="258.7506" gradientTransform="matrix(-.2607 .9654 1.0233 .2764 -347.8995 -369.4902)" gradientUnits="userSpaceOnUse" r="6.6463" xlink:href="#z"/><radialGradient id="W" cx="270.0296" cy="655.9939" gradientTransform="matrix(-.2607 .9654 1.0234 .2764 -333.3826 -356.5243)" gradientUnits="userSpaceOnUse" r="13.9085" xlink:href="#L"/><radialGradient id="X" cx="266.7891" cy="676.416" gradientTransform="matrix(-.2607 .9654 1.0234 .2764 -344.2497 -369.3733)" gradientUnits="userSpaceOnUse" r="13.9087" xlink:href="#x"/><radialGradient id="Y" cx="269.9924" cy="658.041" fx="265.4043" gradientTransform="matrix(-.2607 .9654 1.0233 .2764 -341.1399 -358.6516)" gradientUnits="userSpaceOnUse" r="6.6466" xlink:href="#z"/><radialGradient id="Z" cx="252.9141" cy="662.0154" gradientTransform="matrix(-.2607 .9654 1.0234 .2764 -344.5773 -352.7325)" gradientUnits="userSpaceOnUse" r="13.9097" xlink:href="#L"/><radialGradient id="aa" cx="7.8234" cy="50.4174" gradientTransform="matrix(-.2607 .9654 -1.0234 -.2764 306.795 45.3902)" gradientUnits="userSpaceOnUse" r="16.6599" xlink:href="#f"/><radialGradient id="ab" cx="29.2748" cy="205.5567" gradientTransform="matrix(-.2607 .9654 -1.0234 -.2764 300.0401 140.6667)" gradientUnits="userSpaceOnUse" r="16.6599" xlink:href="#f"/><radialGradient id="ac" cx="141.94" cy="-13.0164" gradientTransform="matrix(-.2607 .9654 -1.0234 -.2764 338.1485 -28.5344)" gradientUnits="userSpaceOnUse" r="16.6598" xlink:href="#f"/><radialGradient id="ad" cx="146.3525" cy="63.7593" gradientTransform="matrix(-.2607 .9654 -1.0234 -.2764 356.6274 67.7374)" gradientUnits="userSpaceOnUse" r="16.6601" xlink:href="#f"/><path d="m151.04 137.28c-3.3 1.9-7.6.8-9.5-2.6-1.9-3.3-.8-7.6 2.6-9.5s7.6-.8 9.5 2.6c1.9 3.3.7 7.6-2.6 9.5z" fill="url(#b)"/><path d="m144.94 120.38c-3.3 1.9-7.6.8-9.5-2.6-1.9-3.3-.8-7.6 2.6-9.5s7.6-.8 9.5 2.6c1.9 3.3.8 7.6-2.6 9.5z" fill="url(#c)"/><path d="m164.44 143.18c-3.3 1.9-7.6.8-9.5-2.6-1.9-3.3-.8-7.6 2.6-9.5 3.3-1.9 7.6-.8 9.5 2.6 1.9 3.3.7 7.5-2.6 9.5z" fill="url(#d)"/><path d="m156.24 141.28c-3.3 1.9-7.6.8-9.5-2.6-1.9-3.3-.8-7.6 2.6-9.5s7.6-.8 9.5 2.6c1.9 3.3.7 7.6-2.6 9.5z" fill="url(#e)"/><path d="m173.84 140.98c-3.3 1.9-7.6.8-9.5-2.6-1.9-3.3-.8-7.6 2.6-9.5s7.6-.8 9.5 2.6c1.9 3.3.7 7.6-2.6 9.5z" fill="url(#g)"/><path d="m179.44 135.88c-3.3 1.9-7.6.8-9.5-2.6-1.9-3.3-.8-7.6 2.6-9.5s7.6-.8 9.5 2.6c1.9 3.3.7 7.6-2.6 9.5z" fill="url(#h)"/><path d="m148.94 112.28c-3.3 1.9-7.6.8-9.5-2.6s-.8-7.6 2.6-9.5c3.3-1.9 7.6-.8 9.5 2.6 1.9 3.3.8 7.5-2.6 9.5z" fill="url(#j)"/><path d="m177.34 109.38c-3.3 1.9-7.6.8-9.5-2.6s-.8-7.6 2.6-9.5 7.6-.8 9.5 2.6c1.9 3.3.7 7.5-2.6 9.5z" fill="url(#k)"/><path d="m184.04 127.58c-3.3 1.9-7.6.8-9.5-2.6-1.9-3.3-.8-7.6 2.6-9.5s7.6-.8 9.5 2.6.7 7.6-2.6 9.5z" fill="url(#l)"/><path d="m176.34 133.08c-3.3 1.9-7.6.8-9.5-2.6-1.9-3.3-.8-7.6 2.6-9.5s7.6-.8 9.5 2.6c1.9 3.3.7 7.6-2.6 9.5z" fill="url(#m)"/><path d="m182.94 119.48c-3.3 1.9-7.6.8-9.5-2.6-1.9-3.3-.8-7.6 2.6-9.5s7.6-.8 9.5 2.6c1.9 3.3.8 7.6-2.6 9.5z" fill="url(#n)"/><path d="m173.54 122.28c-3.3 1.9-7.6.8-9.5-2.6-1.9-3.3-.8-7.6 2.6-9.5 3.3-1.9 7.6-.8 9.5 2.6s.8 7.5-2.6 9.5z" fill="url(#o)"/><path d="m156.14 116.38c-3.3 1.9-7.6.8-9.5-2.6-1.9-3.3-.8-7.6 2.6-9.5s7.6-.8 9.5 2.6.7 7.6-2.6 9.5z" fill="url(#p)"/><path d="m166.54 123.28c-3.3 1.9-7.6.8-9.5-2.6-1.9-3.3-.8-7.6 2.6-9.5 3.3-1.9 7.6-.8 9.5 2.6 1.9 3.3.8 7.5-2.6 9.5z" fill="url(#q)"/><path d="m156.44 106.28c-3.3 1.9-7.6.8-9.5-2.6s-.8-7.6 2.6-9.5 7.6-.8 9.5 2.6.7 7.6-2.6 9.5z" fill="url(#r)"/><path d="m165.14 104.38c-3.3 1.9-7.6.8-9.5-2.6s-.8-7.6 2.6-9.5c3.3-1.9 7.6-.8 9.5 2.6 1.9 3.3.7 7.6-2.6 9.5z" fill="url(#s)"/><path d="m165.34 133.48c-3.3 1.9-7.6.8-9.5-2.6-1.9-3.3-.8-7.6 2.6-9.5s7.6-.8 9.5 2.6c1.9 3.3.8 7.6-2.6 9.5z" fill="url(#t)"/><path d="m165.64 114.28c-3.3 1.9-7.6.8-9.5-2.6s-.8-7.6 2.6-9.5 7.6-.8 9.5 2.6c1.9 3.3.7 7.6-2.6 9.5z" fill="url(#u)"/><path d="m146.04 129.38c-3.3 1.9-7.6.8-9.5-2.6-1.9-3.3-.8-7.6 2.6-9.5s7.6-.8 9.5 2.6c1.9 3.3.7 7.6-2.6 9.5z" fill="url(#v)"/><path d="m155.74 126.68c-3.3 1.9-7.6.8-9.5-2.6-1.9-3.3-.8-7.6 2.6-9.5s7.6-.8 9.5 2.6c1.9 3.3.8 7.6-2.6 9.5z" fill="url(#w)"/><path d="m148.64 160.66c-.43 0-.75-.1-.94-.29-.2-.19-.29-.5-.29-.94v-4h-.86v-1.02h.48c.2 0 .33-.05.4-.14s.1-.24.1-.44v-1.13h1.12v1.7h1.16v1.02h-1.16v4.2h1.08v1.02h-1.09z"/><path d="m155.05 160.66c-.3 0-.54-.08-.71-.25s-.25-.43-.25-.79h-.14c-.09.38-.27.67-.55.88s-.61.31-1.01.31c-.59 0-1.03-.16-1.33-.47-.29-.32-.44-.76-.44-1.34 0-.62.2-1.1.6-1.43s.99-.49 1.76-.49h1.03v-.6c0-.4-.09-.69-.26-.88-.18-.19-.46-.28-.84-.28-.3 0-.55.06-.76.19s-.41.34-.58.65l-.73-.67c.21-.35.49-.64.85-.86s.79-.34 1.31-.34c.75 0 1.32.18 1.69.55s.56.9.56 1.6v3.22h.59v1.02h-.79zm-2.25-.81c.18 0 .34-.03.49-.08.15-.06.28-.13.38-.23s.19-.21.26-.34c.06-.13.1-.27.1-.43v-.86h-.97c-.78 0-1.16.28-1.16.84v.29c0 .28.08.49.25.62.14.12.37.19.65.19z"/><path d="m157.01 160.66v-6.24h1.24v1.24h.14c.09-.4.25-.71.5-.92s.55-.32.93-.32h.31v1.26h-.53c-.44 0-.78.08-1.01.25s-.35.44-.35.8v3.92h-1.23z"/><path d="m165.89 161.28c0 .33-.05.61-.16.85s-.27.44-.5.6-.53.28-.89.36-.81.12-1.34.12c-.47 0-.87-.03-1.2-.1s-.59-.17-.8-.29c-.2-.13-.35-.29-.44-.47-.09-.19-.13-.4-.13-.64 0-.32.09-.57.26-.76s.41-.3.71-.35v-.2c-.22-.08-.39-.2-.5-.36s-.16-.35-.16-.58c0-.28.09-.51.27-.68s.42-.28.73-.33v-.14c-.67-.34-1.01-.97-1.01-1.88 0-.69.19-1.22.57-1.59s.95-.55 1.7-.55c.37 0 .7.06 1.01.18v-.2c0-.51.25-.77.74-.77h.86v.98h-1.15v.28c.26.16.45.38.59.67s.21.62.21 1c0 .69-.19 1.22-.57 1.58s-.95.55-1.7.55c-.14 0-.28-.01-.41-.02-.13-.02-.26-.04-.38-.06-.16.05-.28.13-.36.25s-.12.24-.12.38c0 .16.05.28.16.36s.29.12.53.12h1.5c.71 0 1.22.15 1.52.44.31.28.46.7.46 1.25zm-1.17.13c0-.23-.08-.41-.23-.54s-.41-.19-.77-.19h-1.92c-.24.17-.36.42-.36.74 0 .28.09.5.27.65.18.16.49.23.92.23h.74c.47 0 .81-.07 1.03-.22.22-.14.32-.37.32-.67zm-1.72-3.76c.71 0 1.07-.35 1.07-1.06v-.36c0-.7-.36-1.06-1.07-1.06s-1.07.35-1.07 1.06v.36c0 .71.35 1.06 1.07 1.06z"/><path d="m168.96 160.81c-.39 0-.75-.06-1.08-.19s-.61-.33-.84-.59c-.23-.27-.41-.61-.55-1.01-.13-.41-.2-.9-.2-1.46 0-.57.06-1.06.18-1.47s.29-.75.52-1.01.5-.46.82-.59.67-.19 1.07-.19c.79 0 1.41.26 1.85.78s.67 1.35.67 2.48v.31h-3.82v.4c0 .5.13.88.38 1.14s.6.4 1.04.4c.38 0 .69-.08.93-.25s.45-.4.62-.71l.72.68c-.22.39-.53.71-.91.94-.37.22-.84.34-1.4.34zm-.07-5.55c-.42 0-.74.13-.96.38s-.34.63-.34 1.13v.25h2.51v-.25c0-1-.41-1.51-1.21-1.51z"/><path d="m174.24 160.66c-.43 0-.75-.1-.94-.29-.2-.19-.29-.5-.29-.94v-4h-.86v-1.02h.48c.2 0 .33-.05.4-.14s.1-.24.1-.44v-1.13h1.12v1.7h1.16v1.02h-1.16v4.2h1.08v1.02h-1.09z"/><path d="m142.42 175.06v-6.24h1.24v1.03h.14c.25-.78.76-1.18 1.54-1.18.56 0 .99.19 1.3.57s.46.94.46 1.67v4.14h-1.24v-3.97c0-.44-.08-.78-.25-1.01s-.43-.35-.79-.35c-.33 0-.6.1-.83.29-.22.2-.34.47-.34.82v4.21h-1.23z"/><path d="m152.11 174.03h-.16c-.25.78-.76 1.18-1.55 1.18-.55 0-.98-.19-1.29-.57s-.46-.94-.46-1.67v-4.14h1.24v3.97c0 .9.35 1.36 1.06 1.36.32 0 .59-.1.82-.29s.34-.47.34-.82v-4.21h1.24v6.24h-1.24z"/><path d="m157.17 175.21c-.82 0-1.44-.26-1.88-.78s-.66-1.35-.66-2.48.22-1.96.66-2.48 1.07-.78 1.88-.78c.6 0 1.08.14 1.44.41.36.28.62.64.78 1.1l-1.02.48c-.07-.31-.2-.55-.39-.71s-.46-.25-.81-.25c-.82 0-1.24.5-1.24 1.5v1.46c0 1 .41 1.5 1.24 1.5.36 0 .64-.09.85-.26.2-.17.36-.43.47-.76l.94.52c-.18.49-.46.87-.83 1.13-.38.26-.85.4-1.43.4z"/><path d="m161.77 175.06c-.43 0-.74-.1-.94-.29s-.29-.5-.29-.92v-7.67h1.24v7.86h.74v1.02z"/><path d="m165.93 175.21c-.39 0-.75-.06-1.08-.19s-.61-.33-.84-.59c-.23-.27-.41-.61-.55-1.01-.13-.41-.2-.9-.2-1.46 0-.57.06-1.06.18-1.47s.29-.75.52-1.01.5-.46.82-.59.67-.19 1.07-.19c.79 0 1.41.26 1.85.78s.67 1.35.67 2.48v.31h-3.82v.4c0 .5.13.88.38 1.14s.6.4 1.04.4c.38 0 .69-.08.93-.25s.45-.4.62-.71l.72.68c-.22.39-.53.71-.91.94-.37.22-.84.34-1.4.34zm-.07-5.55c-.42 0-.74.13-.96.38s-.34.63-.34 1.13v.25h2.51v-.25c0-1-.4-1.51-1.21-1.51z"/><path d="m173.06 174.03h-.16c-.25.78-.76 1.18-1.55 1.18-.55 0-.98-.19-1.29-.57s-.46-.94-.46-1.67v-4.14h1.24v3.97c0 .9.35 1.36 1.06 1.36.32 0 .59-.1.82-.29s.34-.47.34-.82v-4.21h1.24v6.24h-1.24z"/><path d="m177.8 175.21c-.52 0-.97-.1-1.35-.29s-.71-.48-.99-.86l.79-.73c.21.3.44.52.68.67s.54.22.88.22c.33 0 .58-.08.76-.22.18-.15.26-.37.26-.66 0-.23-.06-.41-.17-.55s-.32-.23-.61-.29l-.54-.1c-.63-.11-1.1-.31-1.39-.59s-.44-.69-.44-1.25c0-.65.19-1.12.56-1.43s.89-.46 1.55-.46c.48 0 .89.08 1.23.25.34.16.64.4.89.71l-.74.73c-.17-.23-.37-.41-.61-.53s-.49-.18-.76-.18c-.62 0-.94.29-.94.86 0 .25.06.44.19.56s.33.21.61.25l.55.11c.65.11 1.11.31 1.39.59s.41.67.41 1.17c0 .63-.19 1.12-.58 1.47-.37.37-.92.55-1.63.55z"/><path d="m274.86 171.31c-2.78 1.59-6.35.64-7.94-2.15-1.59-2.78-.64-6.35 2.15-7.94 2.78-1.59 6.35-.64 7.94 2.15 1.6 2.78.65 6.35-2.15 7.94z" fill="url(#y)"/><path d="m264.48 161.09c-2.78 1.59-6.35.64-7.94-2.15-1.59-2.8-.64-6.35 2.15-7.94 2.78-1.59 6.35-.64 7.94 2.15 1.6 2.79.63 6.34-2.15 7.94z" fill="url(#A)"/><path d="m288 154.15c-2.63 1.85-6.27 1.21-8.12-1.44-1.85-2.63-1.21-6.27 1.44-8.12 2.63-1.85 6.27-1.21 8.12 1.44s1.2 6.27-1.44 8.12z" fill="url(#B)"/><path d="m287.78 164.87c-2.78 1.59-6.35.64-7.94-2.15-1.59-2.78-.64-6.35 2.15-7.94 2.78-1.59 6.35-.64 7.94 2.15 1.6 2.78.65 6.33-2.15 7.94z" fill="url(#C)"/><path d="m283.13 161.35c-2.78 1.59-6.35.64-7.94-2.15-1.59-2.78-.64-6.35 2.15-7.94 2.78-1.59 6.35-.64 7.94 2.15 1.62 2.77.65 6.34-2.15 7.94z" fill="url(#D)"/><path d="m276.73 155.53c-2.78 1.59-6.35.64-7.94-2.15-1.59-2.78-.64-6.35 2.15-7.94 2.78-1.59 6.35-.64 7.94 2.15 1.6 2.77.65 6.33-2.15 7.94z" fill="url(#E)"/><path d="m267.08 169.47c-2.78 1.59-6.35.64-7.94-2.15-1.59-2.78-.64-6.35 2.15-7.94 2.8-1.59 6.35-.64 7.94 2.15 1.6 2.76.65 6.34-2.15 7.94z" fill="url(#F)"/><path d="m266.53 152.86c-2.78 1.59-6.35.64-7.94-2.15-1.59-2.8-.64-6.35 2.15-7.94 2.8-1.59 6.35-.64 7.94 2.15s.64 6.32-2.15 7.94z" fill="url(#G)"/><path d="m281.95 147.76c-2.78 1.59-6.35.64-7.94-2.15-1.59-2.8-.64-6.35 2.15-7.94 2.78-1.59 6.35-.64 7.94 2.15 1.59 2.77.64 6.32-2.15 7.94z" fill="url(#H)"/><path d="m272.92 161.93c-2.78 1.59-6.35.64-7.94-2.15-1.59-2.78-.64-6.35 2.15-7.94s6.35-.64 7.94 2.15c1.6 2.77.63 6.32-2.15 7.94z" fill="url(#I)"/><path d="m281.54 169.42c-2.78 1.59-6.35.64-7.94-2.15-1.59-2.78-.64-6.35 2.15-7.94 2.78-1.59 6.35-.64 7.94 2.15 1.59 2.77.62 6.32-2.15 7.94z" fill="url(#J)"/><path d="m272.9 147.76c-2.78 1.59-6.35.64-7.94-2.15-1.59-2.78-.64-6.35 2.15-7.94s6.35-.64 7.94 2.15c1.62 2.77.65 6.32-2.15 7.94z" fill="url(#K)"/><path d="m279.86 96.24c-2.78 1.59-6.35.64-7.94-2.15-1.59-2.78-.64-6.35 2.15-7.94 2.78-1.59 6.35-.64 7.94 2.15 1.6 2.77.65 6.33-2.15 7.94z" fill="url(#M)"/><path d="m262.98 79.94c-2.78 1.59-6.35.64-7.94-2.15-1.59-2.78-.64-6.35 2.15-7.94 2.78-1.59 6.35-.64 7.94 2.15 1.59 2.77.62 6.35-2.15 7.94z" fill="url(#N)"/><path d="m283.67 74.12c-2.78 1.59-6.35.64-7.94-2.15-1.59-2.78-.64-6.35 2.15-7.94 2.8-1.59 6.35-.64 7.94 2.15 1.6 2.78.65 6.33-2.15 7.94z" fill="url(#O)"/><path d="m285.03 82.48c-2.78 1.59-6.35.64-7.94-2.15-1.59-2.78-.64-6.35 2.15-7.94 2.78-1.59 6.35-.64 7.94 2.15 1.6 2.77.63 6.35-2.15 7.94z" fill="url(#P)"/><path d="m269.37 73.33c-2.78 1.59-6.35.64-7.94-2.15-1.59-2.8-.64-6.35 2.15-7.94s6.35-.64 7.94 2.15c1.6 2.77.65 6.35-2.15 7.94z" fill="url(#Q)"/><path d="m276.61 69.26c-2.78 1.59-6.35.64-7.94-2.15-1.59-2.78-.64-6.35 2.15-7.94 2.78-1.59 6.35-.64 7.94 2.15 1.62 2.77.65 6.32-2.15 7.94z" fill="url(#R)"/><path d="m289.27 84.98c-2.78 1.59-6.35.64-7.94-2.15-1.59-2.78-.64-6.35 2.15-7.94 2.8-1.59 6.35-.64 7.94 2.15 1.62 2.77.65 6.32-2.15 7.94z" fill="url(#S)"/><path d="m276.01 91.03c-2.78 1.59-6.35.64-7.94-2.15-1.59-2.78-.64-6.35 2.15-7.94 2.78-1.59 6.35-.64 7.94 2.15s.62 6.34-2.15 7.94z" fill="url(#T)"/><path d="m285.69 92.92c-2.78 1.59-6.35.64-7.94-2.15-1.59-2.78-.64-6.35 2.15-7.94 2.8-1.59 6.35-.64 7.94 2.15 1.6 2.77.63 6.33-2.15 7.94z" fill="url(#U)"/><path d="m277.02 77.48c-2.78 1.59-6.35.64-7.94-2.15-1.59-2.78-.64-6.35 2.15-7.94 2.8-1.59 6.35-.64 7.94 2.15 1.62 2.78.65 6.35-2.15 7.94z" fill="url(#V)"/><path d="m269.37 95.21c-2.78 1.59-6.35.64-7.94-2.15-1.59-2.78-.64-6.35 2.15-7.94 2.78-1.59 6.35-.64 7.94 2.15 1.6 2.77.63 6.34-2.15 7.94z" fill="url(#W)"/><path d="m280.25 84.87c-2.78 1.59-6.35.64-7.94-2.15-1.59-2.78-.64-6.35 2.15-7.94 2.78-1.59 6.35-.64 7.94 2.15 1.59 2.77.64 6.35-2.15 7.94z" fill="url(#X)"/><path d="m264.4 89.97c-2.78 1.59-6.35.64-7.94-2.15-1.59-2.78-.64-6.35 2.15-7.94 2.78-1.59 6.35-.64 7.94 2.15 1.59 2.78.62 6.35-2.15 7.94z" fill="url(#Y)"/><path d="m268.81 84.14c-2.78 1.59-6.35.64-7.94-2.15-1.59-2.78-.64-6.35 2.15-7.94 2.8-1.59 6.35-.64 7.94 2.15 1.6 2.77.63 6.34-2.15 7.94z" fill="url(#Z)"/><path d="m255.35 50.62c-3.3 1.9-7.6.8-9.5-2.6s-.8-7.6 2.6-9.5c3.3-1.9 7.6-.8 9.5 2.6s.7 7.6-2.6 9.5z" fill="url(#aa)"/><path d="m84.23 123.78c-3.3 1.9-7.6.8-9.5-2.6-1.9-3.3-.8-7.6 2.6-9.5 3.3-1.9 7.6-.8 9.5 2.6 1.9 3.3.7 7.6-2.6 9.5z" fill="url(#ab)"/><path d="m316.66 123.78c-3.3 1.9-7.6.8-9.5-2.6s-.8-7.6 2.6-9.5c3.3-1.9 7.6-.8 9.5 2.6 1.9 3.3.7 7.5-2.6 9.5z" fill="url(#ac)"/><path d="m255.34 203.11c-3.3 1.9-7.6.8-9.5-2.6-1.9-3.3-.8-7.6 2.6-9.5 3.3-1.9 7.6-.8 9.5 2.6 1.9 3.3.8 7.5-2.6 9.5z" fill="url(#ad)"/><path d="m31.75 121.28v-6.24h1.24v1.03h.14c.25-.78.76-1.18 1.54-1.18.56 0 .99.19 1.3.57s.46.94.46 1.67v4.14h-1.24v-3.97c0-.44-.08-.78-.25-1.01s-.43-.35-.79-.35c-.33 0-.6.1-.83.29-.22.2-.34.47-.34.82v4.21h-1.23z"/><path d="m40.32 121.42c-.39 0-.75-.06-1.08-.19s-.61-.33-.84-.59c-.23-.27-.41-.61-.55-1.01-.13-.41-.2-.9-.2-1.46 0-.57.06-1.06.18-1.47s.29-.75.52-1.01.5-.46.82-.59.67-.19 1.07-.19c.79 0 1.41.26 1.85.78s.67 1.35.67 2.48v.31h-3.82v.4c0 .5.13.88.38 1.14s.6.4 1.04.4c.38 0 .69-.08.93-.25s.45-.4.62-.71l.72.68c-.22.39-.53.71-.91.94-.37.22-.84.34-1.4.34zm-.07-5.55c-.42 0-.74.13-.96.38s-.34.63-.34 1.13v.25h2.51v-.25c0-1-.41-1.51-1.21-1.51z"/><path d="m47.45 120.24h-.16c-.25.78-.76 1.18-1.55 1.18-.55 0-.98-.19-1.29-.57s-.46-.94-.46-1.67v-4.14h1.24v3.97c0 .9.35 1.36 1.06 1.36.32 0 .59-.1.82-.29s.34-.47.34-.82v-4.21h1.24v6.24h-1.24z"/><path d="m51.9 121.28c-.43 0-.75-.1-.94-.29-.2-.19-.29-.5-.29-.94v-4h-.87v-1.02h.48c.2 0 .33-.05.4-.14s.1-.24.1-.44v-1.13h1.12v1.7h1.16v1.02h-1.16v4.2h1.08v1.02h-1.08z"/><path d="m54.3 121.28v-6.24h1.24v1.24h.14c.09-.4.25-.71.5-.92s.55-.32.93-.32h.31v1.26h-.53c-.44 0-.78.08-1.01.25s-.35.44-.35.8v3.92h-1.23z"/><path d="m60.65 121.42c-.4 0-.76-.06-1.07-.19s-.59-.32-.82-.59c-.23-.26-.4-.6-.52-1.01s-.18-.9-.18-1.47.06-1.06.18-1.47.29-.75.52-1.01.5-.46.82-.59.67-.19 1.07-.19c.39 0 .75.06 1.07.19s.59.32.82.59c.23.26.4.6.52 1.01s.18.9.18 1.47-.06 1.06-.18 1.47-.29.75-.52 1.01-.5.46-.82.59-.68.19-1.07.19zm0-1.03c.42 0 .73-.12.95-.37s.33-.62.33-1.13v-1.46c0-.5-.11-.88-.33-1.13s-.54-.37-.95-.37c-.42 0-.73.12-.95.37s-.33.62-.33 1.13v1.46c0 .5.11.88.33 1.13.21.24.53.37.95.37z"/><path d="m64.52 121.28v-6.24h1.24v1.03h.14c.25-.78.76-1.18 1.54-1.18.56 0 .99.19 1.3.57s.46.94.46 1.67v4.14h-1.24v-3.97c0-.44-.08-.78-.25-1.01s-.43-.35-.79-.35c-.33 0-.6.1-.83.29-.22.2-.34.47-.34.82v4.21h-1.23z"/><path d="m296.28 171.36h-.86v-1.02h.86v-1.19c0-.5.11-.87.34-1.1.22-.23.58-.35 1.07-.35h1v1.02h-1.16v1.62h3.41v6.24h-1.24v-5.22h-2.17v5.22h-1.24v-5.22zm4.02-2.21c-.5 0-.74-.21-.74-.64v-.22c0-.42.25-.64.74-.64.5 0 .74.21.74.64v.22c.01.43-.24.64-.74.64z"/><path d="m304.43 176.72c-.52 0-.97-.1-1.35-.29s-.71-.48-.99-.86l.79-.73c.21.3.44.52.68.67s.54.22.88.22c.33 0 .58-.08.76-.22.18-.15.26-.37.26-.66 0-.23-.06-.41-.17-.55s-.32-.23-.61-.29l-.54-.1c-.63-.11-1.1-.31-1.39-.59s-.44-.69-.44-1.25c0-.65.19-1.12.56-1.43s.89-.46 1.55-.46c.48 0 .89.08 1.23.25.34.16.64.4.89.71l-.74.73c-.17-.23-.37-.41-.61-.53s-.49-.18-.76-.18c-.62 0-.94.29-.94.86 0 .25.06.44.19.56s.33.21.61.25l.55.11c.65.11 1.11.31 1.39.59s.41.67.41 1.17c0 .63-.19 1.12-.58 1.47-.37.38-.92.55-1.63.55z"/><path d="m309.66 176.72c-.52 0-.97-.1-1.35-.29s-.71-.48-.99-.86l.79-.73c.21.3.44.52.68.67s.54.22.88.22c.33 0 .58-.08.76-.22.18-.15.26-.37.26-.66 0-.23-.06-.41-.17-.55s-.32-.23-.61-.29l-.54-.1c-.63-.11-1.1-.31-1.39-.59s-.44-.69-.44-1.25c0-.65.19-1.12.56-1.43s.89-.46 1.55-.46c.48 0 .89.08 1.23.25.34.16.64.4.89.71l-.74.73c-.17-.23-.37-.41-.61-.53s-.49-.18-.76-.18c-.62 0-.94.29-.94.86 0 .25.06.44.19.56s.33.21.61.25l.55.11c.65.11 1.11.31 1.39.59s.41.67.41 1.17c0 .63-.19 1.12-.58 1.47-.37.38-.92.55-1.63.55z"/><path d="m313.81 169.15c-.5 0-.74-.21-.74-.64v-.22c0-.42.25-.64.74-.64s.74.21.74.64v.22c.01.43-.24.64-.74.64zm-.61 1.19h1.24v6.24h-1.24z"/><path d="m318.31 176.72c-.4 0-.76-.06-1.07-.19s-.59-.32-.82-.59c-.23-.26-.4-.6-.52-1.01s-.18-.9-.18-1.47.06-1.06.18-1.47.29-.75.52-1.01.5-.46.82-.59.67-.19 1.07-.19c.39 0 .75.06 1.07.19s.59.32.82.59c.23.26.4.6.52 1.01s.18.9.18 1.47-.06 1.06-.18 1.47-.29.75-.52 1.01-.5.46-.82.59-.67.19-1.07.19zm0-1.03c.42 0 .73-.12.95-.37s.33-.62.33-1.13v-1.46c0-.5-.11-.88-.33-1.13s-.54-.37-.95-.37c-.42 0-.73.12-.95.37s-.33.62-.33 1.13v1.46c0 .5.11.88.33 1.13s.54.37.95.37z"/><path d="m322.19 176.58v-6.24h1.24v1.03h.14c.25-.78.76-1.18 1.54-1.18.56 0 .99.19 1.3.57s.46.94.46 1.67v4.14h-1.24v-3.97c0-.44-.08-.78-.25-1.01s-.43-.35-.79-.35c-.33 0-.6.1-.83.29-.22.2-.34.47-.34.82v4.21h-1.23z"/><path d="m331.03 170.34h1.24v1.02h.14c.1-.37.29-.65.56-.86s.59-.31.95-.31c.74 0 1.29.28 1.65.85.36.56.55 1.37.55 2.42s-.18 1.85-.55 2.42c-.36.56-.91.85-1.65.85-.37 0-.69-.1-.95-.31s-.45-.49-.56-.86h-.14v3.42h-1.24zm2.45 5.33c.42 0 .75-.13.98-.4.23-.26.35-.64.35-1.12v-1.39c0-.48-.12-.85-.35-1.12-.23-.26-.56-.4-.98-.4-.35 0-.64.09-.87.28-.23.18-.34.44-.34.76v2.35c0 .32.11.57.34.76s.52.28.87.28z"/><path d="m337.45 176.58v-6.24h1.24v1.24h.14c.09-.4.25-.71.5-.92s.55-.32.93-.32h.31v1.26h-.53c-.44 0-.78.08-1.01.25s-.35.44-.35.8v3.92h-1.23z"/><path d="m343.8 176.72c-.4 0-.76-.06-1.07-.19s-.59-.32-.82-.59c-.23-.26-.4-.6-.52-1.01s-.18-.9-.18-1.47.06-1.06.18-1.47.29-.75.52-1.01.5-.46.82-.59.67-.19 1.07-.19c.39 0 .75.06 1.07.19s.59.32.82.59c.23.26.4.6.52 1.01s.18.9.18 1.47-.06 1.06-.18 1.47-.29.75-.52 1.01-.5.46-.82.59-.68.19-1.07.19zm0-1.03c.42 0 .73-.12.95-.37s.33-.62.33-1.13v-1.46c0-.5-.11-.88-.33-1.13s-.54-.37-.95-.37c-.42 0-.73.12-.95.37s-.33.62-.33 1.13v1.46c0 .5.11.88.33 1.13s.54.37.95.37z"/><path d="m351.18 175.56h-.14c-.1.37-.29.65-.56.86s-.59.31-.95.31c-.74 0-1.3-.28-1.66-.85-.36-.56-.54-1.37-.54-2.42s.18-1.85.54-2.42c.36-.56.91-.85 1.66-.85.37 0 .69.1.95.31s.45.49.56.86h.14v-3.66h1.24v8.88h-1.24zm-1.21.11c.35 0 .64-.09.87-.28.23-.18.34-.44.34-.76v-2.35c0-.32-.11-.57-.34-.76-.23-.18-.52-.28-.87-.28-.42 0-.75.13-.98.4-.23.26-.35.64-.35 1.12v1.39c0 .48.12.85.35 1.12s.55.4.98.4z"/><path d="m357.48 175.55h-.16c-.25.78-.76 1.18-1.55 1.18-.55 0-.98-.19-1.29-.57s-.46-.94-.46-1.67v-4.14h1.24v3.97c0 .9.35 1.36 1.06 1.36.32 0 .59-.1.82-.29s.34-.47.34-.82v-4.21h1.24v6.24h-1.24z"/><path d="m362.54 176.72c-.82 0-1.44-.26-1.88-.78s-.66-1.35-.66-2.48.22-1.96.66-2.48 1.07-.78 1.88-.78c.6 0 1.08.14 1.44.41.36.28.62.64.78 1.1l-1.02.48c-.07-.31-.2-.55-.39-.71s-.46-.25-.81-.25c-.82 0-1.24.5-1.24 1.5v1.46c0 1 .41 1.5 1.24 1.5.36 0 .64-.09.85-.26.2-.17.36-.43.47-.76l.94.52c-.18.49-.46.87-.83 1.13-.38.27-.85.4-1.43.4z"/><path d="m367.45 176.58c-.43 0-.75-.1-.94-.29-.2-.19-.29-.5-.29-.94v-4h-.86v-1.02h.48c.2 0 .33-.05.4-.14s.1-.24.1-.44v-1.13h1.12v1.7h1.16v1.02h-1.16v4.2h1.08v1.02h-1.09z"/><path d="m260.37 35.3v-6.24h1.24v1.03h.14c.25-.78.76-1.18 1.54-1.18.56 0 .99.19 1.3.57s.46.94.46 1.67v4.14h-1.24v-3.97c0-.44-.08-.78-.25-1.01s-.43-.35-.79-.35c-.33 0-.6.1-.83.29-.22.2-.34.47-.34.82v4.21h-1.23z"/><path d="m268.94 35.44c-.39 0-.75-.06-1.08-.19s-.61-.33-.84-.59c-.23-.27-.41-.61-.55-1.01-.13-.41-.2-.9-.2-1.46 0-.57.06-1.06.18-1.47s.29-.75.52-1.01.5-.46.82-.59.67-.19 1.07-.19c.79 0 1.41.26 1.85.78s.67 1.35.67 2.48v.31h-3.82v.4c0 .5.13.88.38 1.14s.6.4 1.04.4c.38 0 .69-.08.93-.25s.45-.4.62-.71l.72.68c-.22.39-.53.71-.91.94-.37.23-.84.34-1.4.34zm-.07-5.54c-.42 0-.74.13-.96.38s-.34.63-.34 1.13v.25h2.51v-.25c0-1.01-.4-1.51-1.21-1.51z"/><path d="m276.07 34.27h-.16c-.25.78-.76 1.18-1.55 1.18-.55 0-.98-.19-1.29-.57s-.46-.94-.46-1.67v-4.14h1.24v3.97c0 .9.35 1.36 1.06 1.36.32 0 .59-.1.82-.29s.34-.47.34-.82v-4.21h1.24v6.24h-1.24z"/><path d="m280.52 35.3c-.43 0-.75-.1-.94-.29-.2-.19-.29-.5-.29-.94v-4h-.86v-1.02h.48c.2 0 .33-.05.4-.14s.1-.24.1-.44v-1.13h1.12v1.7h1.16v1.02h-1.16v4.2h1.08v1.02h-1.09z"/><path d="m282.92 35.3v-6.24h1.24v1.24h.14c.09-.4.25-.71.5-.92s.55-.32.93-.32h.31v1.26h-.53c-.44 0-.78.08-1.01.25s-.35.44-.35.8v3.92h-1.23z"/><path d="m289.27 35.44c-.4 0-.76-.06-1.07-.19s-.59-.32-.82-.59c-.23-.26-.4-.6-.52-1.01s-.18-.9-.18-1.47.06-1.06.18-1.47.29-.75.52-1.01.5-.46.82-.59.67-.19 1.07-.19c.39 0 .75.06 1.07.19s.59.32.82.59c.23.26.4.6.52 1.01s.18.9.18 1.47-.06 1.06-.18 1.47-.29.75-.52 1.01-.5.46-.82.59-.68.19-1.07.19zm0-1.03c.42 0 .73-.12.95-.37s.33-.62.33-1.13v-1.46c0-.5-.11-.88-.33-1.13s-.54-.37-.95-.37c-.42 0-.73.12-.95.37s-.33.62-.33 1.13v1.46c0 .5.11.88.33 1.13.21.25.53.37.95.37z"/><path d="m293.14 35.3v-6.24h1.24v1.03h.14c.25-.78.76-1.18 1.54-1.18.56 0 .99.19 1.3.57s.46.94.46 1.67v4.14h-1.24v-3.97c0-.44-.08-.78-.25-1.01s-.43-.35-.79-.35c-.33 0-.6.1-.83.29-.22.2-.34.47-.34.82v4.21h-1.23z"/><path d="m329.2 121.27v-6.24h1.24v1.03h.14c.25-.78.76-1.18 1.54-1.18.56 0 .99.19 1.3.57s.46.94.46 1.67v4.14h-1.24v-3.97c0-.44-.08-.78-.25-1.01s-.43-.35-.79-.35c-.33 0-.6.1-.83.29-.22.2-.34.47-.34.82v4.21h-1.23z"/><path d="m337.77 121.42c-.39 0-.75-.06-1.08-.19s-.61-.33-.84-.59c-.23-.27-.41-.61-.55-1.01-.13-.41-.2-.9-.2-1.46 0-.57.06-1.06.18-1.47s.29-.75.52-1.01.5-.46.82-.59.67-.19 1.07-.19c.79 0 1.41.26 1.85.78s.67 1.35.67 2.48v.31h-3.82v.4c0 .5.13.88.38 1.14s.6.4 1.04.4c.38 0 .69-.08.93-.25s.45-.4.62-.71l.72.68c-.22.39-.53.71-.91.94-.37.22-.84.34-1.4.34zm-.07-5.55c-.42 0-.74.13-.96.38s-.34.63-.34 1.13v.25h2.51v-.25c0-1-.4-1.51-1.21-1.51z"/><path d="m344.9 120.24h-.16c-.25.78-.76 1.18-1.55 1.18-.55 0-.98-.19-1.29-.57s-.46-.94-.46-1.67v-4.14h1.24v3.97c0 .9.35 1.36 1.06 1.36.32 0 .59-.1.82-.29s.34-.47.34-.82v-4.21h1.24v6.24h-1.24z"/><path d="m349.35 121.27c-.43 0-.75-.1-.94-.29-.2-.19-.29-.5-.29-.94v-4h-.86v-1.02h.48c.2 0 .33-.05.4-.14s.1-.24.1-.44v-1.13h1.12v1.7h1.16v1.02h-1.16v4.2h1.08v1.02h-1.09z"/><path d="m351.75 121.27v-6.24h1.24v1.24h.14c.09-.4.25-.71.5-.92s.55-.32.93-.32h.31v1.26h-.53c-.44 0-.78.08-1.01.25s-.35.44-.35.8v3.92h-1.23z"/><path d="m358.1 121.42c-.4 0-.76-.06-1.07-.19s-.59-.32-.82-.59c-.23-.26-.4-.6-.52-1.01s-.18-.9-.18-1.47.06-1.06.18-1.47.29-.75.52-1.01.5-.46.82-.59.67-.19 1.07-.19c.39 0 .75.06 1.07.19s.59.32.82.59c.23.26.4.6.52 1.01s.18.9.18 1.47-.06 1.06-.18 1.47-.29.75-.52 1.01-.5.46-.82.59-.68.19-1.07.19zm0-1.03c.42 0 .73-.12.95-.37s.33-.62.33-1.13v-1.46c0-.5-.11-.88-.33-1.13s-.54-.37-.95-.37c-.42 0-.73.12-.95.37s-.33.62-.33 1.13v1.46c0 .5.11.88.33 1.13.21.24.53.37.95.37z"/><path d="m361.97 121.27v-6.24h1.24v1.03h.14c.25-.78.76-1.18 1.54-1.18.56 0 .99.19 1.3.57s.46.94.46 1.67v4.14h-1.24v-3.97c0-.44-.08-.78-.25-1.01s-.43-.35-.79-.35c-.33 0-.6.1-.83.29-.22.2-.34.47-.34.82v4.21h-1.23z"/><path d="m260.37 215.63v-6.24h1.24v1.03h.14c.25-.78.76-1.18 1.54-1.18.56 0 .99.19 1.3.57s.46.94.46 1.67v4.14h-1.24v-3.97c0-.44-.08-.78-.25-1.01s-.43-.35-.79-.35c-.33 0-.6.1-.83.29-.22.2-.34.47-.34.82v4.21h-1.23z"/><path d="m268.94 215.77c-.39 0-.75-.06-1.08-.19s-.61-.33-.84-.59c-.23-.27-.41-.61-.55-1.01-.13-.41-.2-.9-.2-1.46 0-.57.06-1.06.18-1.47s.29-.75.52-1.01.5-.46.82-.59.67-.19 1.07-.19c.79 0 1.41.26 1.85.78s.67 1.35.67 2.48v.31h-3.82v.4c0 .5.13.88.38 1.14s.6.4 1.04.4c.38 0 .69-.08.93-.25s.45-.4.62-.71l.72.68c-.22.39-.53.71-.91.94-.37.23-.84.34-1.4.34zm-.07-5.54c-.42 0-.74.13-.96.38s-.34.63-.34 1.13v.25h2.51v-.25c0-1.01-.4-1.51-1.21-1.51z"/><path d="m276.07 214.6h-.16c-.25.78-.76 1.18-1.55 1.18-.55 0-.98-.19-1.29-.57s-.46-.94-.46-1.67v-4.14h1.24v3.97c0 .9.35 1.36 1.06 1.36.32 0 .59-.1.82-.29s.34-.47.34-.82v-4.21h1.24v6.24h-1.24z"/><path d="m280.52 215.63c-.43 0-.75-.1-.94-.29-.2-.19-.29-.5-.29-.94v-4h-.86v-1.02h.48c.2 0 .33-.05.4-.14s.1-.24.1-.44v-1.13h1.12v1.7h1.16v1.02h-1.16v4.2h1.08v1.02h-1.09z"/><path d="m282.92 215.63v-6.24h1.24v1.24h.14c.09-.4.25-.71.5-.92s.55-.32.93-.32h.31v1.26h-.53c-.44 0-.78.08-1.01.25s-.35.44-.35.8v3.92h-1.23z"/><path d="m289.27 215.77c-.4 0-.76-.06-1.07-.19s-.59-.32-.82-.59c-.23-.26-.4-.6-.52-1.01s-.18-.9-.18-1.47.06-1.06.18-1.47.29-.75.52-1.01.5-.46.82-.59.67-.19 1.07-.19c.39 0 .75.06 1.07.19s.59.32.82.59c.23.26.4.6.52 1.01s.18.9.18 1.47-.06 1.06-.18 1.47-.29.75-.52 1.01-.5.46-.82.59-.68.19-1.07.19zm0-1.03c.42 0 .73-.12.95-.37s.33-.62.33-1.13v-1.46c0-.5-.11-.88-.33-1.13s-.54-.37-.95-.37c-.42 0-.73.12-.95.37s-.33.62-.33 1.13v1.46c0 .5.11.88.33 1.13.21.25.53.37.95.37z"/><path d="m293.14 215.63v-6.24h1.24v1.03h.14c.25-.78.76-1.18 1.54-1.18.56 0 .99.19 1.3.57s.46.94.46 1.67v4.14h-1.24v-3.97c0-.44-.08-.78-.25-1.01s-.43-.35-.79-.35c-.33 0-.6.1-.83.29-.22.2-.34.47-.34.82v4.21h-1.23z"/><path d="m296.28 58.99h-.86v-1.02h.86v-1.19c0-.5.11-.87.34-1.1.22-.23.58-.35 1.07-.35h1v1.02h-1.16v1.62h3.41v6.24h-1.24v-5.22h-2.17v5.22h-1.24v-5.22zm4.02-2.21c-.5 0-.74-.21-.74-.64v-.22c0-.42.25-.64.74-.64.5 0 .74.21.74.64v.22c0 .43-.24.64-.74.64z"/><path d="m304.43 64.35c-.52 0-.97-.1-1.35-.29-.38-.2-.71-.48-.99-.86l.79-.73c.21.3.44.52.68.67s.54.22.88.22c.33 0 .58-.08.76-.22.18-.15.26-.37.26-.66 0-.23-.06-.41-.17-.55s-.32-.23-.61-.29l-.54-.1c-.63-.11-1.1-.31-1.39-.59s-.44-.69-.44-1.25c0-.65.19-1.12.56-1.43s.89-.46 1.55-.46c.48 0 .89.08 1.23.25.34.16.64.4.89.71l-.74.73c-.17-.23-.37-.41-.61-.53s-.49-.18-.76-.18c-.62 0-.94.29-.94.86 0 .25.06.44.19.56s.33.21.61.25l.55.11c.65.11 1.11.31 1.39.59s.41.67.41 1.17c0 .63-.19 1.12-.58 1.47-.37.38-.92.55-1.63.55z"/><path d="m309.66 64.35c-.52 0-.97-.1-1.35-.29-.38-.2-.71-.48-.99-.86l.79-.73c.21.3.44.52.68.67s.54.22.88.22c.33 0 .58-.08.76-.22.18-.15.26-.37.26-.66 0-.23-.06-.41-.17-.55s-.32-.23-.61-.29l-.54-.1c-.63-.11-1.1-.31-1.39-.59s-.44-.69-.44-1.25c0-.65.19-1.12.56-1.43s.89-.46 1.55-.46c.48 0 .89.08 1.23.25.34.16.64.4.89.71l-.74.73c-.17-.23-.37-.41-.61-.53s-.49-.18-.76-.18c-.62 0-.94.29-.94.86 0 .25.06.44.19.56s.33.21.61.25l.55.11c.65.11 1.11.31 1.39.59s.41.67.41 1.17c0 .63-.19 1.12-.58 1.47-.37.38-.92.55-1.63.55z"/><path d="m313.81 56.78c-.5 0-.74-.21-.74-.64v-.22c0-.42.25-.64.74-.64s.74.21.74.64v.22c.01.43-.24.64-.74.64zm-.61 1.19h1.24v6.24h-1.24z"/><path d="m318.31 64.35c-.4 0-.76-.06-1.07-.19s-.59-.32-.82-.59c-.23-.26-.4-.6-.52-1.01s-.18-.9-.18-1.47.06-1.06.18-1.47.29-.75.52-1.01.5-.46.82-.59.67-.19 1.07-.19c.39 0 .75.06 1.07.19s.59.32.82.59c.23.26.4.6.52 1.01s.18.9.18 1.47-.06 1.06-.18 1.47-.29.75-.52 1.01-.5.46-.82.59-.68.19-1.07.19zm0-1.03c.42 0 .73-.12.95-.37s.33-.62.33-1.13v-1.46c0-.5-.11-.88-.33-1.13s-.54-.37-.95-.37c-.42 0-.73.12-.95.37s-.33.62-.33 1.13v1.46c0 .5.11.88.33 1.13s.54.37.95.37z"/><path d="m322.19 64.21v-6.24h1.24v1.03h.14c.25-.78.76-1.18 1.54-1.18.56 0 .99.19 1.3.57s.46.94.46 1.67v4.14h-1.24v-3.97c0-.44-.08-.78-.25-1.01s-.43-.35-.79-.35c-.33 0-.6.1-.83.29-.22.2-.34.47-.34.82v4.21h-1.23z"/><path d="m331.03 57.97h1.24v1.02h.14c.1-.37.29-.65.56-.86s.59-.31.95-.31c.74 0 1.29.28 1.65.85.36.56.55 1.37.55 2.42s-.18 1.85-.55 2.42c-.36.56-.91.85-1.65.85-.37 0-.69-.1-.95-.31-.27-.2-.45-.49-.56-.86h-.14v3.42h-1.24zm2.45 5.33c.42 0 .75-.13.98-.4.23-.26.35-.64.35-1.12v-1.39c0-.48-.12-.85-.35-1.12-.23-.26-.56-.4-.98-.4-.35 0-.64.09-.87.28-.23.18-.34.44-.34.76v2.35c0 .32.11.57.34.76.23.18.52.28.87.28z"/><path d="m337.45 64.21v-6.24h1.24v1.24h.14c.09-.4.25-.71.5-.92s.55-.32.93-.32h.31v1.26h-.53c-.44 0-.78.08-1.01.25s-.35.44-.35.8v3.92h-1.23z"/><path d="m343.8 64.35c-.4 0-.76-.06-1.07-.19s-.59-.32-.82-.59c-.23-.26-.4-.6-.52-1.01s-.18-.9-.18-1.47.06-1.06.18-1.47.29-.75.52-1.01.5-.46.82-.59.67-.19 1.07-.19c.39 0 .75.06 1.07.19s.59.32.82.59c.23.26.4.6.52 1.01s.18.9.18 1.47-.06 1.06-.18 1.47-.29.75-.52 1.01-.5.46-.82.59-.68.19-1.07.19zm0-1.03c.42 0 .73-.12.95-.37s.33-.62.33-1.13v-1.46c0-.5-.11-.88-.33-1.13s-.54-.37-.95-.37c-.42 0-.73.12-.95.37s-.33.62-.33 1.13v1.46c0 .5.11.88.33 1.13s.53.37.95.37z"/><path d="m351.18 63.19h-.14c-.1.37-.29.65-.56.86-.27.2-.59.31-.95.31-.74 0-1.3-.28-1.66-.85-.36-.56-.54-1.37-.54-2.42s.18-1.85.54-2.42c.36-.56.91-.85 1.66-.85.37 0 .69.1.95.31s.45.49.56.86h.14v-3.66h1.24v8.88h-1.24zm-1.21.11c.35 0 .64-.09.87-.28.23-.18.34-.44.34-.76v-2.35c0-.32-.11-.57-.34-.76-.23-.18-.52-.28-.87-.28-.42 0-.75.13-.98.4-.23.26-.35.64-.35 1.12v1.39c0 .48.12.85.35 1.12.23.26.55.4.98.4z"/><path d="m357.48 63.18h-.16c-.25.78-.76 1.18-1.55 1.18-.55 0-.98-.19-1.29-.57s-.46-.94-.46-1.67v-4.14h1.24v3.97c0 .9.35 1.36 1.06 1.36.32 0 .59-.1.82-.29s.34-.47.34-.82v-4.21h1.24v6.24h-1.24z"/><path d="m362.54 64.35c-.82 0-1.44-.26-1.88-.78s-.66-1.35-.66-2.48.22-1.96.66-2.48 1.07-.78 1.88-.78c.6 0 1.08.14 1.44.41.36.28.62.64.78 1.1l-1.02.48c-.07-.31-.2-.55-.39-.71s-.46-.25-.81-.25c-.82 0-1.24.5-1.24 1.5v1.46c0 1 .41 1.5 1.24 1.5.36 0 .64-.09.85-.26.2-.17.36-.43.47-.76l.94.52c-.18.49-.46.87-.83 1.13-.38.27-.85.4-1.43.4z"/><path d="m367.45 64.21c-.43 0-.75-.1-.94-.29-.2-.19-.29-.5-.29-.94v-4h-.86v-1.02h.48c.2 0 .33-.05.4-.14s.1-.24.1-.44v-1.13h1.12v1.7h1.16v1.02h-1.16v4.2h1.08v1.02h-1.09z"/><path d="m93.05 117.23h36.66" fill="#fff"/><path d="m93.05 117.23h29.6" fill="none" stroke="#000" stroke-miterlimit="10" stroke-width="2"/><path d="m129.71 117.23-9.95 4.06 2.36-4.06-2.36-4.07z"/><path d="m195.44 117.31h95.32" fill="none" stroke="#000" stroke-miterlimit="10" stroke-width="2"/><path d="m297.82 117.31-9.95 4.06 2.36-4.06-2.36-4.07z"/><path d="m195.44 105.31 44.5-15.16" fill="none" stroke="#000" stroke-miterlimit="10" stroke-width="2"/><path d="m246.63 87.88-8.11 7.05.92-4.61-3.54-3.08z"/><path d="m194.44 131.37 44.51 15.15" fill="none" stroke="#000" stroke-miterlimit="10" stroke-width="2"/><path d="m245.64 148.8-10.73.64 3.54-3.09-.92-4.61z"/><path d="m186.47 89.25 50.33-33.77" fill="none" stroke="#000" stroke-miterlimit="10" stroke-width="2"/><path d="m242.66 51.54-5.99 8.92-.31-4.69-4.22-2.06z"/><path d="m186.47 153.23 50.33 33.77" fill="none" stroke="#000" stroke-miterlimit="10" stroke-width="2"/><path d="m242.66 190.94-10.52-2.17 4.22-2.06.31-4.69z"/></svg>